PathFileType	4	(X/Y/Z)	c:/Users/goper/Files/vsCode/490R/osim_files/C15/C15_Slow_05.trc
DataRate	CameraRate	NumFrames	NumMarkers	Units                	OrigDataRate	OrigDataStartFrame	OrigNumFrames
250.00	250.00	5	36	mm	250.0	1250	2498
                Frame#	Time	LPSIS			LASIS			LTH1			LTH2			LTH3			LTH4			LLFE			LMFE			LSH1			LSH2			LSH3			LSH4			LLMAL			LMMAL			LCAL			LMTP5			LTOE			LMTP1			RPSIS			RASIS			RTH1			RTH2			RTH3			RTH4			RLFE			RMFE			RSH1			RSH2			RSH3			RSH4			RLMAL			RMMAL			RCAL			RMTP1			RTOE			RMTP5		
		X1	Y1	Z1	X2	Y2	Z2	X3	Y3	Z3	X4	Y4	Z4	X5	Y5	Z5	X6	Y6	Z6	X7	Y7	Z7	X8	Y8	Z8	X9	Y9	Z9	X10	Y10	Z10	X11	Y11	Z11	X12	Y12	Z12	X13	Y13	Z13	X14	Y14	Z14	X15	Y15	Z15	X16	Y16	Z16	X17	Y17	Z17	X18	Y18	Z18	X19	Y19	Z19	X20	Y20	Z20	X21	Y21	Z21	X22	Y22	Z22	X23	Y23	Z23	X24	Y24	Z24	X25	Y25	Z25	X26	Y26	Z26	X27	Y27	Z27	X28	Y28	Z28	X29	Y29	Z29	X30	Y30	Z30	X31	Y31	Z31	X32	Y32	Z32	X33	Y33	Z33	X34	Y34	Z34	X35	Y35	Z35	X36	Y36	Z36

1250	4.99600	23.77333	1025.35034	311.12744	-144.91089	1003.81519	368.12061	-81.72008	607.41937	417.72253	-80.92110	563.15637	401.35043	-130.03345	619.47296	412.89191	-132.14352	574.05872	401.90533	-94.81080	489.66504	379.48621	-95.83039	478.57785	262.06671	-25.36407	384.32425	391.03381	-22.40193	339.32751	394.22229	-87.07890	374.06058	387.70258	-75.27697	331.13623	390.80536	-14.92344	80.25735	318.65170	-32.35242	109.71943	231.70547	47.71389	60.05682	275.16791	-135.63492	36.16908	331.00427	-189.09390	56.98214	265.48123	-146.42519	27.49070	210.40750	27.88192	1022.17694	190.71086	-124.22933	1001.11090	119.90723	-158.93594	640.90771	40.27600	-173.83661	596.60779	45.28073	-217.59441	655.74054	48.30397	-225.37056	608.59924	49.42197	-205.31847	510.73434	66.03294	-207.43048	489.02899	189.07471	-87.28217	482.79153	76.75556	-57.51626	451.51224	74.74968	-124.34729	433.17722	61.82785	-88.85848	414.39127	56.75401	103.53550	242.12779	127.98300	48.37312	224.17192	203.70531	150.59529	261.56375	191.76132	29.29454	84.09336	184.08900	3.68956	92.79171	120.43733	79.42629	121.95740	76.47860
1251	5.00000	20.90550	1025.35352	311.06351	-147.67216	1003.76550	368.42084	-82.99271	607.44293	417.76218	-82.12009	563.10272	401.29639	-131.19102	619.31885	412.85825	-133.14433	573.89520	402.09601	-95.58836	489.63507	379.60754	-96.77554	478.54892	262.08783	-25.52862	384.66354	391.00555	-22.87604	339.42673	394.19449	-87.69212	373.99719	387.72711	-75.65643	331.11646	390.88678	-14.97849	80.28229	318.60492	-32.49478	109.78476	231.64554	47.69997	60.01419	275.13779	-135.59561	36.12227	331.04028	-189.17212	56.88601	265.47705	-146.82080	27.83397	210.05783	24.74583	1022.41919	190.57120	-127.43722	1001.56238	120.06900	-164.51093	641.87683	40.32097	-179.06587	597.88312	45.06221	-222.94380	657.19373	48.46635	-231.13342	610.13690	49.75295	-211.59871	512.00153	66.41226	-213.40041	490.43765	189.40681	-93.79192	482.72958	76.96745	-64.26032	451.12631	74.94660	-131.86148	433.83722	61.75299	-96.13545	414.48959	56.88287	94.19540	239.30492	127.64742	38.51463	222.01514	203.66675	142.08110	258.03134	190.93416	17.16701	82.20174	184.52133	-8.57070	91.77039	120.87838	67.72346	118.99515	76.62678
1252	5.00400	17.31824	1025.13306	310.82870	-150.45021	1003.84509	368.66965	-84.16090	607.45465	417.75082	-84.42895	562.54590	400.73248	-132.55273	619.17883	413.00546	-134.34058	573.70520	402.11151	-96.36399	489.62680	379.69757	-97.88992	478.55789	262.13638	-26.15815	384.71964	390.97598	-23.27550	339.56021	394.16534	-88.12321	374.01324	387.78696	-76.06944	331.11221	390.93304	-14.45539	80.70985	319.03281	-32.79968	109.88982	231.51869	47.65303	59.95479	275.09937	-135.55539	36.06862	331.05396	-189.69852	56.70979	264.83829	-145.69705	26.81118	210.09479	21.60461	1022.44623	190.54372	-130.62570	1002.03180	120.24276	-170.01508	642.83392	40.35579	-185.37920	598.78094	45.55647	-228.24651	658.56274	48.68824	-236.71713	611.59717	50.08683	-217.73586	513.33746	66.79196	-219.29765	491.79138	189.73851	-100.15647	482.67487	77.10826	-71.02798	450.67151	74.99589	-139.51900	434.59799	61.54342	-103.68367	414.41357	56.67707	84.28683	235.92494	126.85062	28.99737	220.14211	203.53798	133.30322	254.28926	190.14232	5.09989	80.57391	184.77205	-20.84159	90.81200	121.33821	56.05649	116.67690	76.53149
1253	5.00800	15.07473	1025.42529	310.86536	-153.13042	1003.82880	368.88260	-85.62922	607.41766	417.67688	-85.70867	562.45746	400.67953	-133.72971	619.03369	413.03027	-135.62465	573.67535	402.10870	-97.31530	489.55209	379.74451	-98.79618	478.50162	262.16702	-26.73009	384.82758	390.95541	-23.72089	339.68747	394.13345	-88.54844	373.97549	387.86276	-76.49942	331.07553	390.95670	-14.82856	80.92899	318.90353	-32.30296	110.10414	231.74525	47.64901	59.95406	275.03885	-135.54440	36.04094	331.06952	-189.00072	56.66916	265.63049	-145.67743	26.79582	209.94348	18.48022	1022.59094	190.45457	-133.92618	1002.36700	120.40970	-175.29813	643.83685	40.45897	-190.42935	600.06702	45.32476	-233.44527	659.89862	48.96690	-242.22745	613.00409	50.43359	-223.38947	514.59753	66.77910	-225.20828	493.18719	190.14839	-106.43375	482.54968	77.21987	-77.81966	450.10074	74.98629	-147.33437	435.47650	61.18739	-110.66826	414.46710	57.00679	74.76915	232.82816	126.49575	20.04277	218.52687	203.34293	124.38987	250.36703	189.29193	-7.62322	78.83478	184.90352	-33.50884	89.72240	121.93130	43.54819	113.64883	76.59459
1254	5.01200	11.53569	1025.21350	310.61130	-155.89258	1003.81281	369.09973	-86.78572	607.53351	417.69022	-86.90598	562.46497	400.64813	-135.13480	618.92145	413.07486	-136.66862	573.49854	402.27481	-98.21417	489.51764	379.78748	-100.00028	478.44632	262.25491	-27.66740	384.71231	390.87277	-24.21254	339.82861	394.03955	-89.22304	373.85547	387.93094	-77.00790	331.11731	390.95010	-14.75350	81.17999	318.86490	-32.49007	110.21889	231.68915	47.58754	59.96685	274.98669	-135.54588	36.02398	331.08936	-189.05565	56.61495	265.63208	-145.64825	26.77018	209.78012	15.37599	1022.73773	190.30847	-137.33098	1002.69666	120.68626	-180.55292	644.78967	40.54106	-196.66336	600.92932	45.87010	-238.65709	661.28784	49.20235	-247.62874	614.41504	50.79203	-229.91920	515.83472	67.57045	-230.93208	494.40988	190.51517	-112.68580	482.28036	77.28247	-84.55284	449.50519	74.99146	-155.32217	436.48956	60.67311	-118.63393	413.41296	57.52973	65.21671	230.02716	126.24490	9.80323	216.07878	203.23114	115.23557	246.32443	188.51610	-20.29206	76.67213	185.12604	-45.74686	88.72414	122.14416	31.60083	111.32012	76.46958
